# xmcd CD database file
#
# Track frame offsets:
#	150
#	20865
#	46235
#	69816
#	98717
#	124133
#	151401
#	178397
#	196964
#
# Disc length: 2872 seconds
#
# Revision: 0
# Processed by: cddbd v1.5.2PL0 Copyright (c) Steve Scherf et al.
# Submitted via: CDex 1.51
#
DISCID=770b3609
DTITLE=Mike Field - Rush Mode
DYEAR=2013
DGENRE=Jazz
TTITLE0=Rush Mode
TTITLE1=Play For You
TTITLE2=El Sotano
TTITLE3=Red Eye Blues
TTITLE4=Intersection
TTITLE5=The Last Of The Summer Days
TTITLE6=Arizona Avenue
TTITLE7=Balkan Swing
TTITLE8=Streets Of Santa Monica
EXTD=YEAR: 2013
EXTT0=
EXTT1=
EXTT2=
EXTT3=
EXTT4=
EXTT5=
EXTT6=
EXTT7=
EXTT8=
PLAYORDER=
